<?xml version="1.0" encoding="UTF-8" standalone="no"?>
<!DOCTYPE svg PUBLIC "-//W3C//DTD SVG 1.1//EN" "http://www.w3.org/Graphics/SVG/1.1/DTD/svg11.dtd">
<svg xmlns="http://www.w3.org/2000/svg" version="1.1" viewBox="0.00 0.00 96.00 96.00">
<path fill="#ffffff" d="
  M 36.00 27.99
  C 31.08 27.95 27.94 32.02 27.98 36.76
  Q 28.06 47.27 27.95 58.99
  C 27.90 64.24 31.14 68.04 36.58 68.01
  Q 46.53 67.96 56.26 68.04
  C 59.58 68.07 59.83 70.66 59.87 73.23
  Q 60.00 80.90 60.01 87.88
  A 4.16 4.15 0.3 0 1 55.80 92.03
  Q 43.49 91.89 29.54 92.08
  Q 23.16 92.16 19.08 90.85
  C 9.79 87.85 3.98 79.24 4.00 69.33
  Q 4.03 51.12 3.97 26.98
  C 3.93 12.95 14.01 3.87 27.72 3.95
  Q 47.70 4.06 65.29 3.98
  Q 75.43 3.94 82.03 10.97
  C 86.66 15.90 88.10 21.59 88.07 28.32
  Q 87.92 58.68 88.04 87.89
  A 4.10 4.09 -0.1 0 1 83.94 92.00
  L 68.04 92.00
  A 4.03 4.03 0.0 0 1 64.01 87.97
  Q 63.97 65.08 64.03 36.84
  C 64.04 30.56 59.96 27.87 54.13 27.94
  Q 44.60 28.06 36.00 27.99
  Z
  M 35.29 75.94
  C 29.43 75.84 24.07 72.00 21.57 66.85
  Q 19.72 63.06 19.92 56.82
  Q 20.19 48.75 19.93 40.55
  Q 19.72 33.46 21.28 29.77
  Q 23.78 23.85 29.69 21.31
  Q 33.59 19.63 41.09 19.95
  Q 46.81 20.20 53.25 19.94
  C 61.04 19.62 67.44 22.54 70.71 29.71
  Q 72.13 32.83 72.08 38.89
  Q 71.92 60.92 72.03 82.63
  Q 72.04 84.05 73.46 84.05
  L 78.48 84.02
  Q 79.93 84.01 79.93 82.56
  Q 79.86 55.31 80.08 29.04
  Q 80.13 23.70 78.85 20.60
  C 76.19 14.14 70.44 11.85 63.52 11.93
  Q 46.26 12.12 28.19 11.95
  C 21.57 11.89 16.20 14.01 13.33 20.13
  Q 11.86 23.26 11.92 29.33
  Q 12.10 48.76 11.93 67.99
  C 11.88 74.40 14.05 79.65 19.93 82.56
  Q 22.99 84.08 28.54 84.06
  Q 39.35 84.02 50.93 84.04
  Q 52.02 84.04 52.02 82.94
  L 52.00 77.18
  Q 51.99 75.97 50.78 75.98
  Q 42.52 76.07 35.29 75.94
  Z"
/>
</svg>
